# xmcd CD database file
#
# Track frame offsets:
#	150
#	20668
#	36376
#	50678
#	66379
#	101444
#	127299
#
# Disc length: 1909 seconds
#
# Revision: 0
# Processed by: cddbd v1.5.2PL0 Copyright (c) Steve Scherf et al.
# Submitted via: CdAid (MTCDDB.DLL V2003.12.21)
#
DISCID=6a077307
DTITLE=The Temptations - Wings Of Love
DYEAR=1976
DGENRE=Soul
TTITLE0=Sweet Gypsy Janes
TTITLE1=Sweetness In The Dark
TTITLE2=Up The Creek (Without A Paddle)
TTITLE3=China Doll
TTITLE4=Mary Ann
TTITLE5=Dream World (Wings Of Love)
TTITLE6=Paradise
EXTD=ID3G:  42 YEAR: 1976
EXTT0=
EXTT1=
EXTT2=
EXTT3=
EXTT4=
EXTT5=
EXTT6=
PLAYORDER=
